<?xml version="1.0" encoding="utf-8"?>
<svg viewBox="17.21 0 472.827 402.175" xmlns="http://www.w3.org/2000/svg">
  <defs/>
  <g transform="matrix(3.479929, 0, 0, 2.967649, 30.001938, 10.251637)" style="">
    <svg viewBox="0 0 96 96" data-background-color="#ffffff" preserveAspectRatio="xMidYMid meet" height="128" width="128" xmlns="http://www.w3.org/2000/svg">
      <g id="tight-bounds" transform="matrix(1,0,0,1,0.25950000000000273,0.25950000000000273)">
        <svg viewBox="0 0 95.48100000000001 95.48100000000001" height="95.48100000000001" width="95.48100000000001">
          <g>
            <svg viewBox="0 0 95.48100000000001 95.48100000000001" height="95.48100000000001" width="95.48100000000001">
              <g>
                <svg viewBox="0 0 95.48100000000001 95.48100000000001" height="95.48100000000001" width="95.48100000000001">
                  <g id="textblocktransform">
                    <svg viewBox="0 0 95.48100000000001 95.48100000000001" height="95.48100000000001" width="95.48100000000001" id="textblock">
                      <g>
                        <svg viewBox="0 0 95.48100000000001 95.48100000000001" height="95.48100000000001" width="95.48100000000001">
                          <g>
                            <svg viewBox="0 0 95.48100000000001 95.48100000000001" height="95.48100000000001" width="95.48100000000001">
                              <g>
                                <svg xmlns="http://www.w3.org/2000/svg" version="1.1" x="0" y="0" viewBox="2.5 2.5 95 95" enable-background="new 0 0 100 100" height="95.48100000000001" width="95.48100000000001" class="icon-icon-0" data-fill-palette-color="accent" id="icon-0">
                                  <path d="M79 53.3C80.3 56.9 83.8 59.6 88 59.6 93.3 59.6 97.5 55.3 97.5 50.1 97.5 44.8 93.2 40.6 88 40.6 83.9 40.6 80.4 43.2 79 46.9H67.6C67.1 44.4 66.2 42.1 64.8 40.1L72.9 32C76.4 33.6 80.7 33 83.7 30.1 87.4 26.4 87.4 20.3 83.7 16.6S73.9 12.9 70.2 16.6C67.3 19.5 66.7 23.8 68.3 27.4L60.2 35.5C58.1 34.1 55.8 33.1 53.4 32.7V21C57 19.7 59.7 16.2 59.7 12 59.7 6.7 55.4 2.5 50.2 2.5 44.9 2.5 40.7 6.8 40.7 12 40.7 16.1 43.3 19.6 47 21V32.4C44.5 32.9 42.2 33.8 40.2 35.2L32.1 27.1C33.7 23.6 33.1 19.3 30.2 16.3 26.5 12.6 20.4 12.6 16.7 16.3S13 26.1 16.7 29.8C19.6 32.7 23.9 33.3 27.5 31.7L35.6 39.8C34.2 41.9 33.2 44.2 32.8 46.6H21C19.7 43 16.2 40.3 12 40.3 6.7 40.3 2.5 44.6 2.5 49.8 2.5 55.1 6.8 59.3 12 59.3 16.1 59.3 19.6 56.7 21 53H32.4C32.9 55.5 33.8 57.8 35.2 59.8L27.1 67.9C23.6 66.3 19.3 66.9 16.3 69.8 12.6 73.5 12.6 79.6 16.3 83.3S26.1 87 29.8 83.3C32.7 80.4 33.3 76.1 31.7 72.5L39.8 64.4C41.9 65.8 44.2 66.8 46.6 67.2V79C43 80.3 40.3 83.8 40.3 88 40.3 93.3 44.6 97.5 49.8 97.5 55.1 97.5 59.3 93.2 59.3 88 59.3 83.9 56.7 80.4 53 79V67.6C55.5 67.1 57.8 66.2 59.8 64.8L67.9 72.9C66.3 76.4 66.9 80.7 69.8 83.7 73.5 87.4 79.6 87.4 83.3 83.7S87 73.9 83.3 70.2C80.4 67.3 76.1 66.7 72.5 68.3L64.4 60.2C65.8 58.1 66.8 55.8 67.2 53.4H79zM56 56C54.4 57.6 52.3 58.5 50 58.5S45.6 57.6 44 56 41.5 52.3 41.5 50 42.4 45.6 44 44 47.7 41.5 50 41.5 54.4 42.4 56 44 58.5 47.7 58.5 50 57.6 54.4 56 56" fill="#ca3433" data-fill-palette-color="accent"/>
                                </svg>
                              </g>
                            </svg>
                          </g>
                        </svg>
                      </g>
                    </svg>
                  </g>
                </svg>
              </g>
            </svg>
          </g>
          <defs/>
        </svg>
        <rect width="95.48100000000001" height="95.48100000000001" fill="none" stroke="none" visibility="hidden"/>
      </g>
    </svg>
  </g>
</svg>