<svg xmlns="http://www.w3.org/2000/svg" version="1.1" xmlns:xlink="http://www.w3.org/1999/xlink" xmlns:svgjs="http://svgjs.dev/svgjs" width="2000" height="388" viewBox="0 0 2000 388"><g transform="matrix(1,0,0,1,-1.2121212121212466,-0.5560654497833752)"><svg viewBox="0 0 396 77" data-background-color="#ffffff" preserveAspectRatio="xMidYMid meet" height="388" width="2000" xmlns="http://www.w3.org/2000/svg" xmlns:xlink="http://www.w3.org/1999/xlink"><g id="tight-bounds" transform="matrix(1,0,0,1,0.2400000000000091,0.11035319493123552)"><svg viewBox="0 0 395.52 76.7792936101375" height="76.7792936101375" width="395.52"><g><svg viewBox="0 0 395.52 76.7792936101375" height="76.7792936101375" width="395.52"><g><svg viewBox="0 0 395.52 76.7792936101375" height="76.7792936101375" width="395.52"><g id="textblocktransform"><svg viewBox="0 0 395.52 76.7792936101375" height="76.7792936101375" width="395.52" id="textblock"><g><svg viewBox="0 0 395.52 76.7792936101375" height="76.7792936101375" width="395.52"><g transform="matrix(1,0,0,1,0,0)"><svg width="395.52" viewBox="2.75 -35.75 185.44 36" height="76.7792936101375" data-palette-color="url(#3324ec95-e371-47d3-b2b9-62e5693ac2a0)"></svg></g></svg></g></svg></g></svg></g></svg></g><defs></defs><mask id="4257addf-7f21-4064-acac-5ef6333f3f8d"><g id="SvgjsG1603"><svg viewBox="0 0 395.52 76.7792936101375" height="76.7792936101375" width="395.52"><g><svg viewBox="0 0 395.52 76.7792936101375" height="76.7792936101375" width="395.52"><g><svg viewBox="0 0 395.52 76.7792936101375" height="76.7792936101375" width="395.52"><g id="SvgjsG1602"><svg viewBox="0 0 395.52 76.7792936101375" height="76.7792936101375" width="395.52" id="SvgjsSvg1601"><g><svg viewBox="0 0 395.52 76.7792936101375" height="76.7792936101375" width="395.52"><g transform="matrix(1,0,0,1,0,0)"><svg width="395.52" viewBox="2.75 -35.75 185.44 36" height="76.7792936101375" data-palette-color="url(#3324ec95-e371-47d3-b2b9-62e5693ac2a0)"><path d="M10.1 0L2.75 0 2.75-25.75 22.45-25.75Q26.8-25.75 28.85-23.58 30.9-21.4 30.9-17.85L30.9-17.85 30.9-12.5 23.55-12.5 23.55-16.95Q23.55-19.95 20.55-19.95L20.55-19.95 10.1-19.95 10.1 0ZM69.35 0.25L49.1 0.25Q42.4 0.25 38.65-3.08 34.9-6.4 34.9-12.85L34.9-12.85Q34.9-19.35 38.65-22.68 42.4-26 49.1-26L49.1-26 61.6-26Q66-26 68.32-23.93 70.65-21.85 70.65-18L70.65-18Q70.65-10.15 61.6-10.15L61.6-10.15 42.7-10.15Q43.75-5.5 49.1-5.5L49.1-5.5 69.35-5.5 69.35 0.25ZM61.25-20.25L49.1-20.25Q43.95-20.25 42.75-15.9L42.75-15.9 61.25-15.9Q62.25-15.9 62.82-16.5 63.4-17.1 63.4-18.15L63.4-18.15Q63.4-20.25 61.25-20.25L61.25-20.25ZM108.45 0L82 0Q77.95 0 75.8-2.05 73.65-4.1 73.65-7.9L73.65-7.9Q73.65-11.65 75.8-13.7 77.95-15.75 82-15.75L82-15.75 101.2-15.75 101.2-16.95Q101.2-20 98.2-20L98.2-20 77-20 77-25.75 100.1-25.75Q104.65-25.75 106.55-23.68 108.45-21.6 108.45-17.85L108.45-17.85 108.45 0ZM83.3-5.75L83.3-5.75 101.2-5.75 101.2-10 83.3-10Q82.35-10 81.82-9.43 81.3-8.85 81.3-7.9L81.3-7.9Q81.3-6.95 81.82-6.35 82.35-5.75 83.3-5.75ZM138.39 0L145.64 0 145.64-35.75 138.39-35.75 138.39 0ZM127.14 0L144.39 0 144.39-5.75 127.14-5.75Q123.89-5.75 122.17-7.53 120.44-9.3 120.44-12.85L120.44-12.85Q120.44-16.45 122.17-18.23 123.89-20 127.14-20L127.14-20 143.89-20 143.89-25.75 127.14-25.75Q120.44-25.75 116.69-22.45 112.94-19.15 112.94-12.85L112.94-12.85Q112.94-6.6 116.69-3.3 120.44 0 127.14 0L127.14 0ZM158.39 0L151.14 0 151.14-25.75 158.39-25.75 158.39 0ZM158.44-30L151.09-30 151.09-35.65 158.44-35.65 158.44-30ZM188.19 0L177.29 0Q172.94 0 170.89-2.18 168.84-4.35 168.84-7.9L168.84-7.9 168.84-20 161.39-20 161.39-25.75 168.84-25.75 168.84-33.65 176.09-33.65 176.09-25.75 186.79-25.75 186.79-20 176.09-20 176.09-8.8Q176.09-5.75 179.09-5.75L179.09-5.75 188.19-5.75 188.19 0Z" opacity="1" transform="matrix(1,0,0,1,0,0)" fill="white" class="wordmark-text-0" id="SvgjsPath1600"></path></svg></g></svg></g></svg></g></svg></g></svg></g><defs><mask></mask></defs></svg><rect width="395.52" height="76.7792936101375" fill="black" stroke="none" visibility="hidden"></rect></g></mask><linearGradient x1="0" x2="1" y1="0.5" y2="0.5" id="3324ec95-e371-47d3-b2b9-62e5693ac2a0"><stop stop-color="#ffa62e" offset="0"></stop><stop stop-color="#f71b3d" offset="1"></stop></linearGradient><rect width="395.52" height="76.7792936101375" fill="url(#3324ec95-e371-47d3-b2b9-62e5693ac2a0)" mask="url(#4257addf-7f21-4064-acac-5ef6333f3f8d)" data-fill-palette-color="primary"></rect></svg><rect width="395.52" height="76.7792936101375" fill="none" stroke="none" visibility="hidden"></rect></g></svg></g></svg>